# xmcd CD database file
# Copyright (C) 1995-1998 Ti Kan
#
# Track frame offsets:
#	150
#	44157
#	90427
#	100255
#	129565
#	178937
#
# Disc length: 2782 seconds
#
# Revision: 1
# Processed by: cddbd v1.4PL0 Copyright (c) Steve Scherf et al.
# Submitted via: CDex 1.40Beta0
#
DISCID=4f0adc06
DTITLE=Chuck Mangione - Feels So Good
DYEAR=1977
DGENRE=Blues
TTITLE0=Feels So Good
TTITLE1=Maui-Waui
TTITLE2=Theme From "Side Street"
TTITLE3=Hide and Seek (Ready Or Not Here I Come)
TTITLE4=Last Dance
TTITLE5=The XIth Commandment
EXTD=YEAR: 1977 ID3G:   0
EXTT0=
EXTT1=
EXTT2=
EXTT3=
EXTT4=
EXTT5=
PLAYORDER=
